<svg width="25" height="24" viewBox="0 0 25 24" fill="none" xmlns="http://www.w3.org/2000/svg">
<mask id="mask0_68_4433" style="mask-type:alpha" maskUnits="userSpaceOnUse" x="0" y="0" width="25" height="24">
<rect x="0.5" width="24" height="24" rx="2" fill="#D9D9D9"/>
</mask>
<g mask="url(#mask0_68_4433)">
<rect y="-0.5" width="25" height="25" fill="white" stroke="#D4DCE5"/>
<path d="M16.6922 8.86325C17.0887 8.40626 17.797 8.4033 18.1973 8.85698L24.2498 15.7165C24.411 15.8992 24.5 16.1345 24.5 16.3781V23C24.5 23.5523 24.0523 24 23.5 24H1.5C0.947716 24 0.5 23.5523 0.5 23V19.8252C0.5 19.6138 0.566958 19.4079 0.691264 19.237L4.06946 14.592C4.32582 14.2395 4.78094 14.0936 5.19443 14.2315L9.86625 15.7887C10.2499 15.9166 10.6728 15.8009 10.9378 15.4954L16.6922 8.86325Z" fill="#6248FF"/>
<path d="M8 9C9.38071 9 10.5 7.88071 10.5 6.5C10.5 5.11929 9.38071 4 8 4C6.61929 4 5.5 5.11929 5.5 6.5C5.5 7.88071 6.61929 9 8 9Z" fill="#FF4848"/>
</g>
</svg>
