<svg width="44" height="44" viewBox="0 0 44 44" fill="none" xmlns="http://www.w3.org/2000/svg">
<g filter="url(#filter0_d_2903_145)">
<path d="M29.5003 12.9709L21.717 19.0176L13.7559 12.9709V12.9726L13.7655 12.9808V21.4477L21.6273 27.6251L29.5003 21.6863V12.9709Z" fill="#EA4335"/>
<path d="M31.544 11.5L29.5 12.9708V21.6862L35.9318 16.7704V13.8092C35.9318 13.8092 35.1511 9.5798 31.544 11.5Z" fill="#FBBC05"/>
<path d="M29.5 21.6865V32.9905H34.4297C34.4297 32.9905 35.8324 32.8467 35.9334 31.255V16.7708L29.5 21.6865Z" fill="#34A853"/>
<path d="M13.7658 33V21.4476L13.7559 21.4395L13.7658 33Z" fill="#C5221F"/>
<path d="M13.7562 12.9728L11.7234 11.5102C8.11632 9.58996 7.33398 13.8177 7.33398 13.8177V16.779L13.7562 21.4398V12.9728Z" fill="#C5221F"/>
<path d="M13.7559 12.9727V21.4396L13.7658 21.4478V12.9808L13.7559 12.9727Z" fill="#C5221F"/>
<path d="M7.33398 16.78V31.2642C7.43338 32.8576 8.83773 32.9998 8.83773 32.9998H13.7674L13.7562 21.4392L7.33398 16.78Z" fill="#4285F4"/>
</g>
<defs>
<filter id="filter0_d_2903_145" x="-2.75" y="-1.375" width="49.5" height="49.5" filterUnits="userSpaceOnUse" color-interpolation-filters="sRGB">
<feFlood flood-opacity="0" result="BackgroundImageFix"/>
<feColorMatrix in="SourceAlpha" type="matrix" values="0 0 0 0 0 0 0 0 0 0 0 0 0 0 0 0 0 0 127 0" result="hardAlpha"/>
<feOffset dy="1.375"/>
<feGaussianBlur stdDeviation="1.375"/>
<feColorMatrix type="matrix" values="0 0 0 0 0.0627451 0 0 0 0 0.0941176 0 0 0 0 0.156863 0 0 0 0.05 0"/>
<feBlend mode="normal" in2="BackgroundImageFix" result="effect1_dropShadow_2903_145"/>
<feBlend mode="normal" in="SourceGraphic" in2="effect1_dropShadow_2903_145" result="shape"/>
</filter>
</defs>
</svg>
