<svg width="44" height="44" viewBox="0 0 44 44" fill="none" xmlns="http://www.w3.org/2000/svg">
<rect width="44" height="44" rx="22" fill="#0A66C2"/>
<g clip-path="url(#clip0_1_1817)">
<rect x="7" y="7" width="30" height="30" fill="white"/>
<path d="M35.6378 6H8.36222C7.73572 6 7.13488 6.24888 6.69188 6.69188C6.24888 7.13488 6 7.73572 6 8.36222V35.6378C6 36.2643 6.24888 36.8651 6.69188 37.3081C7.13488 37.7511 7.73572 38 8.36222 38H35.6378C36.2643 38 36.8651 37.7511 37.3081 37.3081C37.7511 36.8651 38 36.2643 38 35.6378V8.36222C38 7.73572 37.7511 7.13488 37.3081 6.69188C36.8651 6.24888 36.2643 6 35.6378 6ZM15.5378 33.26H10.7267V17.9778H15.5378V33.26ZM13.1289 15.86C12.5832 15.8569 12.0506 15.6923 11.5983 15.3868C11.1461 15.0813 10.7945 14.6487 10.5878 14.1436C10.3812 13.6385 10.3289 13.0835 10.4374 12.5486C10.5459 12.0138 10.8104 11.523 11.1975 11.1384C11.5847 10.7537 12.0771 10.4924 12.6126 10.3873C13.1482 10.2822 13.7028 10.3381 14.2066 10.548C14.7104 10.7578 15.1407 11.1122 15.4433 11.5664C15.7459 12.0206 15.9071 12.5543 15.9067 13.1C15.9118 13.4654 15.8433 13.8281 15.7053 14.1664C15.5674 14.5048 15.3626 14.8119 15.1034 15.0694C14.8442 15.327 14.5358 15.5297 14.1966 15.6655C13.8573 15.8014 13.4942 15.8675 13.1289 15.86ZM33.2711 33.2733H28.4622V24.9244C28.4622 22.4622 27.4156 21.7022 26.0644 21.7022C24.6378 21.7022 23.2378 22.7778 23.2378 24.9867V33.2733H18.4267V17.9889H23.0533V20.1067H23.1156C23.58 19.1667 25.2067 17.56 27.6889 17.56C30.3733 17.56 33.2733 19.1533 33.2733 23.82L33.2711 33.2733Z" fill="#0A66C2"/>
</g>
<defs>
<clipPath id="clip0_1_1817">
<rect width="32" height="32" fill="white" transform="translate(6 6)"/>
</clipPath>
</defs>
</svg>
