<svg width="45" height="44" viewBox="0 0 45 44" fill="none" xmlns="http://www.w3.org/2000/svg">
<path d="M42.6891 22.0941C42.6891 10.9961 33.6925 1.99951 22.5946 1.99951C11.4966 1.99951 2.5 10.9961 2.5 22.0941C2.5 32.1238 9.84828 40.437 19.4548 41.9445V27.9026H14.3527V22.0941H19.4548V17.667C19.4548 12.6308 22.4547 9.84896 27.0448 9.84896C29.2433 9.84896 31.5429 10.2414 31.5429 10.2414V15.1866H29.009C26.5128 15.1866 25.7343 16.7355 25.7343 18.3247V22.0941H31.3074L30.4165 27.9026H25.7343V41.9445C35.3408 40.437 42.6891 32.1238 42.6891 22.0941" fill="#1877F2"/>
<path d="M30.4173 27.9026L31.3083 22.094H25.7352V18.3246C25.7352 16.7355 26.5136 15.1865 29.0099 15.1865H31.5437V10.2413C31.5437 10.2413 29.2441 9.84888 27.0456 9.84888C22.4556 9.84888 19.4556 12.6307 19.4556 17.6669V22.094H14.3535V27.9026H19.4556V41.9444C20.4943 42.1072 21.5441 42.1888 22.5954 42.1885C23.6636 42.1885 24.7121 42.1049 25.7352 41.9444V27.9026H30.4173Z" fill="white"/>
</svg>
