<svg width="44" height="44" viewBox="0 0 44 44" fill="none" xmlns="http://www.w3.org/2000/svg">
<path fill-rule="evenodd" clip-rule="evenodd" d="M20.5094 2.21827C17.0119 2.53068 13.9402 3.58013 11.1021 5.43223C8.91732 6.85797 6.84748 8.92782 5.42174 11.1126C3.75373 13.6686 2.75757 16.3576 2.31162 19.5077C2.16175 20.5664 2.16175 23.4504 2.31162 24.509C2.82568 28.1406 4.12722 31.3006 6.2475 34.0652C9.15352 37.8542 13.3747 40.5006 18.0087 41.4386C19.5309 41.7467 20.1185 41.8 21.9979 41.8C23.8772 41.8 24.4648 41.7467 25.987 41.4386C30.6211 40.5006 34.8422 37.8542 37.7482 34.0652C39.8685 31.3006 41.1701 28.1406 41.6841 24.509C41.834 23.4504 41.834 20.5664 41.6841 19.5077C41.1701 15.8761 39.8685 12.7162 37.7482 9.95155C34.5264 5.75083 29.8873 3.07529 24.5283 2.32711C23.8995 2.23935 21.1172 2.16397 20.5094 2.21827ZM24.7069 3.54809C32.161 4.66066 38.2331 10.1314 40.0676 17.3874C40.5068 19.1247 40.6036 19.9591 40.6036 22.0084C40.6036 24.0577 40.5068 24.892 40.0676 26.6293C38.3648 33.3644 32.9635 38.6359 26.1657 40.1971C24.6832 40.5376 23.9516 40.61 21.9979 40.61C20.0441 40.61 19.3126 40.5376 17.8301 40.1971C13.3136 39.1598 9.31963 36.4545 6.66785 32.6362C5.03592 30.2865 3.96754 27.579 3.53141 24.6877C3.40947 23.8794 3.39214 23.5467 3.39214 22.0084C3.39214 20.47 3.40947 20.1373 3.53141 19.3291C4.38634 13.6618 7.62352 8.85762 12.5755 5.90718C14.5335 4.74056 17.0141 3.87235 19.2888 3.5575C20.5627 3.38114 20.5038 3.3843 22.236 3.40026C23.5086 3.41199 23.9866 3.44062 24.7069 3.54809ZM20.7917 5.51946C18.9695 5.65015 17.0521 6.12712 15.3401 6.87554C12.7082 8.02609 10.297 9.99013 8.5449 12.4105C8.37188 12.6496 8.24923 12.8639 8.27245 12.8869C8.34348 12.9571 10.8896 12.9104 12.4064 12.8111C13.7 12.7263 13.8582 12.726 14.0185 12.8089C14.4182 13.0156 14.4893 13.6149 14.1501 13.918C13.9614 14.0866 13.8665 14.1049 12.6241 14.2103C12.2332 14.2435 11.9077 14.2768 11.9007 14.2843C11.8781 14.3087 17.859 32.0705 17.8898 32.0706C17.9063 32.0706 18.7262 29.6511 19.7118 26.694L21.5038 21.3173L20.2249 17.8076C19.5216 15.8773 18.9416 14.2923 18.9361 14.2853C18.9306 14.2784 18.6193 14.2444 18.2442 14.2097C17.019 14.0965 16.9848 14.0887 16.7733 13.8777C16.5527 13.6577 16.5161 13.3732 16.6701 13.0754C16.8546 12.7185 16.9494 12.7056 18.5595 12.8166C20.3848 12.9425 23.019 12.9425 24.8379 12.8165C25.7191 12.7555 26.2715 12.7407 26.3633 12.7756C26.865 12.9663 26.9071 13.7757 26.4279 14.0202C26.3593 14.0552 25.9976 14.1128 25.6242 14.1481C24.4309 14.261 24.3199 14.2759 24.3199 14.3224C24.3199 14.3475 25.5485 18.0229 27.0501 22.49C28.5517 26.957 29.8815 30.9171 30.0051 31.2902C30.1497 31.7265 30.2463 31.939 30.2758 31.8856C30.3748 31.7069 32.4399 25.0821 32.6588 24.2411C33.0018 22.9231 33.1318 22.0724 33.1318 21.1469C33.1318 19.436 32.716 18.1436 31.5412 16.2032C30.5912 14.6343 30.3297 14.0398 30.2086 13.1737C29.9663 11.4418 31.2675 9.8027 32.8848 9.8027H33.1486L32.8629 9.54965C29.6423 6.6971 25.1737 5.20515 20.7917 5.51946ZM36.5695 14.417C36.6436 14.9621 36.6034 16.8887 36.5038 17.561C36.3526 18.5818 36.1235 19.525 35.785 20.5199C35.5045 21.3444 31.1549 33.8967 30.5704 35.5686C30.4416 35.937 30.3594 36.2384 30.3876 36.2384C30.416 36.2384 30.7435 36.035 31.1156 35.7864C34.3752 33.6086 36.8157 30.3066 37.8637 26.6561C38.3313 25.0274 38.5088 23.7485 38.5088 22.0084C38.5088 19.3627 37.9769 17.0417 36.8489 14.7651C36.5376 14.1369 36.5301 14.1274 36.5695 14.417ZM6.77079 15.5781C5.81423 17.7811 5.32784 20.6488 5.50349 23.0503C5.75695 26.5158 6.90345 29.5148 9.02015 32.2492C9.58929 32.9845 11.0381 34.434 11.757 34.9874C12.7532 35.7543 14.6179 36.9102 14.7101 36.818C14.7307 36.7974 7.31433 16.3957 6.94572 15.459C6.88832 15.3131 6.88481 15.3156 6.77079 15.5781ZM19.8023 30.6785C18.4473 34.6233 17.3488 37.8603 17.3611 37.8719C17.3735 37.8836 17.6649 37.9627 18.0087 38.0477C20.4522 38.6523 22.9869 38.6946 25.4415 38.1718C26.3032 37.9883 27.4498 37.6428 27.4338 37.5717C27.4025 37.4329 22.335 23.5811 22.3028 23.5462C22.2824 23.5242 21.1572 26.7337 19.8023 30.6785Z" fill="#3478C4"/>
</svg>
